<svg width="32" height="32" fill="none" xmlns="http://www.w3.org/2000/svg"><path d="M27.053 11.053l-5.72 5.72-1.733-1.72-1.88 1.894 3.6 3.6 7.627-7.6-1.894-1.894zm-21.72-.386A5.213 5.213 0 0010.667 16 5.214 5.214 0 0016 10.667a5.214 5.214 0 00-5.333-5.334 5.213 5.213 0 00-5.334 5.334zm8 0a2.547 2.547 0 01-2.666 2.666A2.547 2.547 0 018 10.667 2.547 2.547 0 0110.667 8a2.547 2.547 0 012.666 2.667zM5.333 24a4 4 0 014-4H12a4 4 0 014 4v1.333h2.667V24A6.667 6.667 0 0012 17.333H9.333A6.667 6.667 0 002.667 24v1.333h2.666V24z" fill="#fff"/></svg>