<svg width="32" height="32" viewBox="0 0 32 32" fill="none" xmlns="http://www.w3.org/2000/svg">
<path d="M5.33332 26.6667H7.99999V13.3333C7.99999 12.9797 8.14047 12.6406 8.39051 12.3905C8.64056 12.1405 8.9797 12 9.33332 12H25.3333V9.33332C25.3333 8.9797 25.1928 8.64056 24.9428 8.39051C24.6928 8.14047 24.3536 7.99999 24 7.99999H19.932C19.596 5.00799 17.08 2.66666 14 2.66666C10.92 2.66666 8.40399 5.00799 8.06799 7.99999H3.99999C3.64637 7.99999 3.30723 8.14047 3.05718 8.39051C2.80713 8.64056 2.66666 8.9797 2.66666 9.33332V24C2.66666 24.7072 2.94761 25.3855 3.4477 25.8856C3.9478 26.3857 4.62608 26.6667 5.33332 26.6667ZM14 5.33332C15.6093 5.33332 16.9573 6.47999 17.2667 7.99999H10.7333C11.0427 6.47999 12.3907 5.33332 14 5.33332Z" fill="white"/>
<path d="M28 14.6667H12C11.6464 14.6667 11.3072 14.8071 11.0572 15.0572C10.8071 15.3072 10.6667 15.6464 10.6667 16V26.6667C10.6667 27.3739 10.9476 28.0522 11.4477 28.5523C11.9478 29.0524 12.6261 29.3333 13.3333 29.3333H26.6667C27.3739 29.3333 28.0522 29.0524 28.5523 28.5523C29.0524 28.0522 29.3333 27.3739 29.3333 26.6667V16C29.3333 15.6464 29.1928 15.3072 28.9428 15.0572C28.6928 14.8071 28.3536 14.6667 28 14.6667ZM20 24C16.324 24 13.3333 21.0093 13.3333 17.3333H16C16 19.5387 17.7947 21.3333 20 21.3333C22.2053 21.3333 24 19.5387 24 17.3333H26.6667C26.6667 21.0093 23.676 24 20 24Z" fill="white"/>
</svg>
