<svg width="32" height="32" viewBox="0 0 32 32" fill="none" xmlns="http://www.w3.org/2000/svg">
<path d="M16 2.66666C8.64802 2.66666 2.66669 8.64799 2.66669 16C2.66669 23.352 8.64802 29.3333 16 29.3333C23.352 29.3333 29.3334 23.352 29.3334 16C29.3334 8.64799 23.352 2.66666 16 2.66666ZM16 26.6667C10.1187 26.6667 5.33335 21.8813 5.33335 16C5.33335 10.1187 10.1187 5.33332 16 5.33332C21.8814 5.33332 26.6667 10.1187 26.6667 16C26.6667 21.8813 21.8814 26.6667 16 26.6667Z" fill="white"/>
<path d="M13.332 18.116L10.2666 15.056L8.38397 16.944L13.3346 21.884L22.276 12.9427L20.3906 11.0573L13.332 18.116Z" fill="white"/>
</svg>
