<svg width="32" height="32" viewBox="0 0 32 32" fill="none" xmlns="http://www.w3.org/2000/svg">
<path d="M4 10.6667V25.3333C4 28.268 6.392 29.3333 8 29.3333H28V26.6667H8.016C7.4 26.6507 6.66667 26.408 6.66667 25.3333C6.66667 25.1987 6.67867 25.0787 6.69867 24.9693C6.848 24.2013 7.47733 24.0133 8.016 24H28V5.33332C28 3.86266 26.804 2.66666 25.3333 2.66666H8C6.392 2.66666 4 3.73199 4 6.66666V10.6667ZM8 5.33332H25.3333V21.3333H6.66667V6.66666C6.66667 5.59199 7.4 5.34932 8 5.33332Z" fill="white"/>
<path d="M14.6667 18.6667H17.3333V14.6667H21.3333V12H17.3333V8H14.6667V12H10.6667V14.6667H14.6667V18.6667Z" fill="white"/>
</svg>
