<svg width="32" height="32" fill="none" xmlns="http://www.w3.org/2000/svg"><g clip-path="url(#clip0_170_139)"><path d="M15.25 4.55s-1.3.55-2.75-.85c-.85-.8-2.3-1.5-2.9-1.7h-.55s-1.9 0-3.9 1.7c-1.2 1-2.3 1.1-2.5.85H2.1C1.4 6.1 0 5.9 0 5.9v15.2h17.1L15.8 4.55h-.55z" fill="#3E4347"/><path d="M15.8 4.55s-1.3.55-2.75-.85C11.3 2 9.6 2 9.6 2S7.7 2 5.7 3.7c-1.65 1.4-3.05.85-3.05.85-.7 1.55-2.1 1.4-2.1 1.4v15.2h17.1V5.9s-1.25.2-1.85-1.35" fill="#62696D"/><path d="M.55 17.75l10.7 5.75V28L.55 21.1v-3.35z" fill="#3E4347"/><path d="M11.25 28L32 24.5v-4l-20.75 3V28zm-.5-.3l.2 2.1.3.2v-2l-.5-.3z" fill="#62696D"/><path d="M11.25 30l.7-.2.35-1.95-1.05.15v2zm20.55-3.5v-1.95l-1.35.25.45 1.85.9-.15zM.2 21.1v1.6h.75l.5-1.6H.2z" fill="#3E4347"/><path d="M.55 17.75l10.7 5.75 20.75-3-14.5-5L.55 17.75z" fill="#94989B"/><path d="M1.15 14.85L11.6 19v3.8L1.15 17.65v-2.8z" fill="#DAE3EA"/><path d="M11.6 22.8l19.35-2.55v-3.4L11.6 19v3.8z" fill="#FFDD7D"/><path d="M1.15 14.85L11.6 19l19.35-2.15-13.3-3.35-16.5 1.35z" fill="#fff"/><path d="M2.05 12.8s.6 1.6 2.5 2.35c0 0 2.85-.85 6.65-.8 0 0-1.5-1.35-1.9-2.5 0 .05-3.3-1.15-7.25.95zm8.65-.7s.4 1.6 1.7 2.35c0 0 1.95-.85 4.5-.8 0 0-1-1.35-1.3-2.5.05.05-2.2-1.15-4.9.95" fill="#B2C1C0"/><path d="M3.75 11.6s1.3 1.75 1.9 4.1c0 0 2.85-1.15 6.65-1.1 0 0-1.5-1.9-1.9-3.45 0 0-2.8-.55-6.65.45zm7.55-.5s1.15 1.6 1.7 3.7c0 0 2.55-1.05 5.95-1 0 0-1.35-1.7-1.7-3.1 0 0-2.5-.5-5.95.4z" fill="#DAE3EA"/><path d="M5.9 20s-.3-2.1-.15-2.7c.1-.45.6-1.1.85-1.35.7-.55 3.15-.75 3.15-.75s8.85-1.25 11.75-1.15c.45 0 1.65.8 1.65.8L9.35 16.6l-1.5 2.65-.15 1.7L5.9 20" fill="#A53838"/><path d="M8.7 17.85l-.8 1.4-.15 1.65 3.85 1.9V19l-2.9-1.15z" fill="#A53838"/><path d="M11.6 19v3.8l19.35-2.55v-3.4L11.6 19z" fill="#ED4C5C"/><path d="M8.7 17.85L11.6 19l19.35-2.15-7.9-2-13.65 1.7-.7 1.3z" fill="#C94747"/><path d="M27.2 15.9s-.35-.6-.5-.75c-.2-.15-.8-.2-.8-.2s-.2-.45-.3-.5c-.25-.1-.95.35-.95.35s-.4-.55-.55-.55c-3.65 0-11.3.9-14.85 1.95-.4.1-1 1.05-1.2 1.5-.5 1-1.15 3.3-1.3 4.55-.15 1.15.55 4.45.55 4.45s.6-2.25 1.15-2.9c.25-.3.5 1.35.5 1.35s.45-2.1.6-2.3c.2-.25.5 1.25.5 1.25s.3-3.3.55-4.1c.15-.55.7-1.5 1.05-1.65 3.5-1.55 10.85-2.8 14.45-2.7.2.05 1.1.25 1.1.25" fill="#ED4C5C"/></g><defs><clipPath id="clip0_170_139"><path fill="#fff" d="M0 0h32v32H0z"/></clipPath></defs></svg>