<svg width="32" height="32" viewBox="0 0 32 32" fill="none" xmlns="http://www.w3.org/2000/svg">
<path d="M16 7.99999C17.4728 7.99999 18.6667 6.80608 18.6667 5.33332C18.6667 3.86056 17.4728 2.66666 16 2.66666C14.5273 2.66666 13.3333 3.86056 13.3333 5.33332C13.3333 6.80608 14.5273 7.99999 16 7.99999Z" fill="white"/>
<path d="M20 9.33334H12C11.6464 9.33334 11.3072 9.47382 11.0572 9.72387C10.8071 9.97392 10.6667 10.3131 10.6667 10.6667V20H13.3333V29.3333H18.6667V20H21.3333V10.6667C21.3333 10.3131 21.1928 9.97392 20.9428 9.72387C20.6927 9.47382 20.3536 9.33334 20 9.33334Z" fill="white"/>
</svg>
