<svg width="32" height="32" fill="none" xmlns="http://www.w3.org/2000/svg"><path d="M5.333 17.333h8A1.333 1.333 0 0014.667 16V5.333A1.333 1.333 0 0013.333 4h-8A1.333 1.333 0 004 5.333V16a1.333 1.333 0 001.333 1.333zM4 26.667A1.333 1.333 0 005.333 28h8a1.333 1.333 0 001.334-1.333v-5.334A1.333 1.333 0 0013.333 20h-8A1.334 1.334 0 004 21.333v5.334zm13.333 0A1.333 1.333 0 0018.667 28h8A1.334 1.334 0 0028 26.667v-9.334A1.334 1.334 0 0026.667 16h-8a1.333 1.333 0 00-1.334 1.333v9.334zm1.334-13.334h8A1.333 1.333 0 0028 12V5.333A1.334 1.334 0 0026.667 4h-8a1.333 1.333 0 00-1.334 1.333V12a1.333 1.333 0 001.334 1.333z" fill="#F3F3F3"/></svg>