<svg width="32" height="32" viewBox="0 0 32 32" fill="none" xmlns="http://www.w3.org/2000/svg">
<path d="M12.6667 16C15.608 16 18 13.608 18 10.6667C18 7.72534 15.608 5.33334 12.6667 5.33334C9.72532 5.33334 7.33332 7.72534 7.33332 10.6667C7.33332 13.608 9.72532 16 12.6667 16ZM14.6667 17.3333H10.6667C6.25466 17.3333 2.66666 20.9213 2.66666 25.3333V26.6667H22.6667V25.3333C22.6667 20.9213 19.0787 17.3333 14.6667 17.3333Z" fill="white"/>
<path d="M22.1387 14.7307C22.9507 13.3468 23.3014 11.7404 23.14 10.144C22.9013 7.76533 21.5733 5.66267 19.4027 4.224L17.9293 6.44533C19.4213 7.43467 20.3293 8.844 20.4867 10.4107C20.5592 11.1388 20.4686 11.8739 20.2213 12.5626C19.9741 13.2513 19.5764 13.8763 19.0573 14.392L17.468 15.9813L19.6253 16.6147C25.268 18.268 25.3333 23.9427 25.3333 24H28C28 21.6147 26.7253 16.9533 22.1387 14.7307Z" fill="white"/>
</svg>
