<svg width="32" height="32" viewBox="0 0 32 32" fill="none" xmlns="http://www.w3.org/2000/svg">
<path d="M16 20C13.5467 20 13.3333 18.8533 13.3333 18.6667H10.6667C10.6667 19.8933 11.5467 22.0667 14.6667 22.56V24H17.3333V22.56C20 22.1067 21.3333 20.3867 21.3333 18.6667C21.3333 17.1733 20.64 14.6667 16 14.6667C13.3333 14.6667 13.3333 13.8267 13.3333 13.3333C13.3333 12.84 14.2667 12 16 12C17.7333 12 17.8533 12.8533 17.8667 13.3333H20.5333C20.5153 12.425 20.1886 11.5499 19.607 10.8519C19.0254 10.154 18.2235 9.67486 17.3333 9.49333V8H14.6667V9.45333C12 9.89333 10.6667 11.6133 10.6667 13.3333C10.6667 14.8267 11.36 17.3333 16 17.3333C18.6667 17.3333 18.6667 18.24 18.6667 18.6667C18.6667 19.0933 17.84 20 16 20Z" fill="white"/>
<path d="M6.66667 2.66666H2.66667V5.33332H5.33334V28C5.33334 28.3536 5.47381 28.6927 5.72386 28.9428C5.97391 29.1928 6.31305 29.3333 6.66667 29.3333H25.3333C25.687 29.3333 26.0261 29.1928 26.2761 28.9428C26.5262 28.6927 26.6667 28.3536 26.6667 28V5.33332H29.3333V2.66666H6.66667ZM24 26.6667H8V5.33332H24V26.6667Z" fill="white"/>
</svg>
