<svg width="32" height="32" viewBox="0 0 32 32" fill="none" xmlns="http://www.w3.org/2000/svg">
<path d="M8.00002 28H4.00002C3.6464 28 3.30726 27.8595 3.05721 27.6095C2.80716 27.3594 2.66669 27.0203 2.66669 26.6667V16C2.66669 15.6464 2.80716 15.3072 3.05721 15.0572C3.30726 14.8071 3.6464 14.6667 4.00002 14.6667H8.00002C8.35364 14.6667 8.69278 14.8071 8.94283 15.0572C9.19288 15.3072 9.33335 15.6464 9.33335 16V26.6667C9.33335 27.0203 9.19288 27.3594 8.94283 27.6095C8.69278 27.8595 8.35364 28 8.00002 28ZM17.3334 28H13.3334C12.9797 28 12.6406 27.8595 12.3905 27.6095C12.1405 27.3594 12 27.0203 12 26.6667V3.99999C12 3.64637 12.1405 3.30723 12.3905 3.05718C12.6406 2.80713 12.9797 2.66666 13.3334 2.66666H17.3334C17.687 2.66666 18.0261 2.80713 18.2762 3.05718C18.5262 3.30723 18.6667 3.64637 18.6667 3.99999V26.6667C18.6667 27.0203 18.5262 27.3594 18.2762 27.6095C18.0261 27.8595 17.687 28 17.3334 28ZM26.6667 28H22.6667C22.3131 28 21.9739 27.8595 21.7239 27.6095C21.4738 27.3594 21.3334 27.0203 21.3334 26.6667V12C21.3334 11.6464 21.4738 11.3072 21.7239 11.0572C21.9739 10.8071 22.3131 10.6667 22.6667 10.6667H26.6667C27.0203 10.6667 27.3594 10.8071 27.6095 11.0572C27.8595 11.3072 28 11.6464 28 12V26.6667C28 27.0203 27.8595 27.3594 27.6095 27.6095C27.3594 27.8595 27.0203 28 26.6667 28Z" fill="white"/>
</svg>
