<svg width="32" height="32" viewBox="0 0 32 32" fill="none" xmlns="http://www.w3.org/2000/svg">
<path d="M25.5333 10.6667C25.3006 10.2636 24.9665 9.92852 24.5642 9.69461C24.1619 9.4607 23.7054 9.33615 23.24 9.33334H20V6.66668C20 6.31305 19.8595 5.97392 19.6095 5.72387C19.3594 5.47382 19.0203 5.33334 18.6667 5.33334H5.33332C4.62608 5.33334 3.9478 5.61429 3.4477 6.11439C2.94761 6.61449 2.66666 7.29277 2.66666 8.00001V21.3333C2.66714 21.801 2.79058 22.2603 3.02461 22.6651C3.25863 23.07 3.59501 23.4062 3.99999 23.64C3.95225 24.8777 4.39813 26.0836 5.23955 26.9926C6.08096 27.9015 7.24898 28.4389 8.48666 28.4867C9.72433 28.5344 10.9303 28.0885 11.8392 27.2471C12.7481 26.4057 13.2856 25.2377 13.3333 24H17.4667C17.6141 25.1156 18.1619 26.1396 19.0082 26.8814C19.8544 27.6231 20.9414 28.0321 22.0667 28.0321C23.192 28.0321 24.2789 27.6231 25.1251 26.8814C25.9714 26.1396 26.5192 25.1156 26.6667 24C27.3739 24 28.0522 23.7191 28.5523 23.219C29.0524 22.7189 29.3333 22.0406 29.3333 21.3333V17.3333C29.3312 17.0901 29.267 16.8514 29.1467 16.64L25.5333 10.6667ZM20 12H23.24L25.64 16H20V12ZM8.66666 25.3333C8.27109 25.3333 7.88441 25.216 7.55552 24.9963C7.22662 24.7765 6.97027 24.4642 6.8189 24.0987C6.66752 23.7333 6.62792 23.3311 6.70509 22.9432C6.78226 22.5552 6.97274 22.1988 7.25244 21.9191C7.53215 21.6394 7.88851 21.4489 8.27648 21.3718C8.66444 21.2946 9.06657 21.3342 9.43202 21.4856C9.79748 21.637 10.1098 21.8933 10.3296 22.2222C10.5494 22.5511 10.6667 22.9378 10.6667 23.3333C10.6667 23.8638 10.4559 24.3725 10.0809 24.7476C9.7058 25.1226 9.19709 25.3333 8.66666 25.3333ZM22 25.3333C21.6044 25.3333 21.2177 25.216 20.8889 24.9963C20.56 24.7765 20.3036 24.4642 20.1522 24.0987C20.0009 23.7333 19.9612 23.3311 20.0384 22.9432C20.1156 22.5552 20.3061 22.1988 20.5858 21.9191C20.8655 21.6394 21.2218 21.4489 21.6098 21.3718C21.9978 21.2946 22.3999 21.3342 22.7654 21.4856C23.1308 21.637 23.4432 21.8933 23.6629 22.2222C23.8827 22.5511 24 22.9378 24 23.3333C24 23.8638 23.7893 24.3725 23.4142 24.7476C23.0391 25.1226 22.5304 25.3333 22 25.3333Z" fill="white"/>
</svg>
